<?xml version="1.0" encoding="UTF-8"?>
<svg version="1.1" xmlns="http://www.w3.org/2000/svg" width="5493" height="5027">
<path d="M0 0 C1.8615369 -0.00702319 3.72307355 -0.01411 5.58460999 -0.02125549 C11.49781646 -0.04064487 17.41098369 -0.04568931 23.32421875 -0.046875 C24.83532604 -0.04753778 24.83532604 -0.04753778 26.37696075 -0.04821396 C56.68993148 -0.05518689 86.82089624 0.20994183 117.01171875 3.203125 C118.82501489 3.37664951 120.63832913 3.54998495 122.45166016 3.72314453 C162.70979632 7.62768153 202.65254289 13.85807537 242.01171875 23.203125 C242.73580933 23.3743689 243.4598999 23.54561279 244.20593262 23.7220459 C326.77707435 43.31777526 406.56950149 76.55502389 507.42138672 151.83496094 C509.04673803 153.23325212 510.68546453 154.61428693 512.328125 155.9921875 C531.85720002 172.42397673 549.67170982 190.71743467 567.69294726 208.75694485 C571.47446203 212.54116635 575.25891149 216.32245127 579.04296905 220.10412979 C585.68847446 226.74625404 592.33213181 233.39022224 598.97456975 240.03541404 C608.91843236 249.98338057 618.86519107 259.92844769 628.81250316 269.87296481 C645.76775906 286.82362582 662.72064897 303.77665131 679.6722374 320.73097992 C696.84734321 337.90884708 714.0235405 355.08562178 731.20106506 372.26107025 C731.74333735 372.80327803 732.28560964 373.3454858 732.84431442 373.90412411 C737.81407199 378.87329012 742.78384073 383.84244496 747.7536229 388.81158638 C760.21438308 401.27074261 772.67496934 413.73007278 785.13543773 426.18952084 C785.7063487 426.76038491 786.27725967 427.33124898 786.86547098 427.91941196 C814.99295298 456.04461639 843.11852892 484.17172671 871.24391556 512.29902649 C872.47559161 513.53078618 873.70726767 514.76254587 874.93894373 515.99430556 C875.85457835 516.91000236 875.85457835 516.91000236 876.78871064 517.84419809 C884.83869246 525.89472643 892.88867922 533.94524981 900.93867922 541.99575996 C901.55402153 542.61114144 902.16936384 543.22652291 902.80335289 543.86055231 C931.32510168 572.38410273 959.84796574 600.90653779 988.37107623 629.42872652 C991.4831473 632.54069779 994.59521621 635.6526712 997.70728537 638.76464438 C1007.08744414 648.14451256 1016.46760608 657.52437757 1025.84777459 666.90423601 C1054.45061324 695.50613017 1083.05327978 724.10819644 1111.65579796 752.71041107 C1112.29262783 753.34723407 1112.92945769 753.98405707 1113.58558544 754.64017774 C1154.82269117 795.87684478 1196.05902728 837.11428135 1237.29480934 878.35227203 C1237.95302711 879.01052492 1238.61124488 879.66877781 1239.28940864 880.34697775 C1261.3363027 902.39504815 1283.3831569 924.44315842 1305.43000702 946.49127276 C1372.11324832 1013.17833525 1438.79735404 1079.86453296 1557.9072646 1198.96841501 C1579.96088129 1221.0207685 1602.01449064 1243.07312934 1624.06806374 1265.12552643 C1624.72644792 1265.78387537 1625.38483211 1266.44222431 1626.06316733 1267.12052322 C1667.28794721 1308.34309814 1708.51211582 1349.56628427 1749.73557091 1390.79018402 C1750.69039668 1391.74501992 1750.69039668 1391.74501992 1751.66451185 1392.71914544 C1780.2452314 1421.30017169 1808.82578516 1449.88136372 1837.40618553 1478.46270915 C1846.77922456 1487.83605772 1856.15227119 1497.20939869 1865.52532041 1506.58273708 C1868.63462127 1509.69213392 1871.74392144 1512.80153145 1874.85322003 1515.91093056 C1903.37758655 1544.43621635 1931.90228005 1572.96117505 1960.42801332 1601.48509407 C1961.35102756 1602.40804985 1961.35102756 1602.40804985 1962.29268854 1603.34965119 C1970.34342746 1611.39987831 1978.3941818 1619.45009001 1986.444938 1627.50029983 C1987.05529372 1628.11061414 1987.66564944 1628.72092844 1988.29450079 1629.34973712 C1989.52589448 1630.58104726 1990.75728822 1631.81235736 1991.98868199 1633.04366742 C2020.08033365 1661.13341452 2048.17168655 1689.22346016 2076.26123118 1717.31531429 C2077.11576882 1718.16992196 2077.11576882 1718.16992196 2077.98756985 1719.04179443 C2090.41485384 1731.47010846 2102.84199308 1743.8985672 2115.26898993 1756.32716832 C2120.22477415 1761.28358845 2125.18057603 1766.23999092 2130.13638306 1771.19638824 C2130.67698033 1771.73705094 2131.21757761 1772.27771363 2131.77455662 1772.83476004 C2148.93250711 1789.99477037 2166.09198971 1807.15324758 2183.25235481 1824.31084323 C2200.60982639 1841.66552748 2217.96557366 1859.0219342 2235.31920662 1876.38045689 C2245.19777659 1886.26170385 2255.07772207 1896.14157075 2264.95967044 1906.01943911 C2271.51279075 1912.57012522 2278.0641136 1919.1226052 2284.61394463 1925.67658016 C2288.33302269 1929.39790905 2292.05288721 1933.11844235 2295.77495856 1936.83677757 C2299.15102468 1940.20948395 2302.52478848 1943.58447558 2305.89672088 1946.9613146 C2307.10727806 1948.17282843 2308.31867225 1949.38350664 2309.53100699 1950.59324171 C2315.04778498 1956.09900537 2320.53596256 1961.58709077 2325.56980141 1967.54686447 C2327.14119928 1969.35185301 2328.80350389 1971.02775324 2330.51171875 1972.703125 C2334.22371332 1976.36595408 2337.62018516 1980.24418655 2341.01171875 1984.203125 C2342.30722656 1985.69972656 2342.30722656 1985.69972656 2343.62890625 1987.2265625 C2356.2517344 2001.83481175 2368.46052859 2016.73085566 2380.01171875 2032.203125 C2380.74213379 2033.17596436 2380.74213379 2033.17596436 2381.48730469 2034.16845703 C2399.13863243 2057.77666334 2415.28036913 2082.68428493 2430.01171875 2108.203125 C2430.57197754 2109.16428223 2431.13223633 2110.12543945 2431.70947266 2111.11572266 C2456.29307132 2153.41366119 2475.92105374 2198.04846488 2492.01171875 2244.203125 C2492.65463867 2246.04680664 2492.65463867 2246.04680664 2493.31054688 2247.92773438 C2506.63478011 2286.67118026 2516.1494232 2326.80516475 2522.76171875 2367.203125 C2522.90492554 2368.07612244 2523.04813232 2368.94911987 2523.19567871 2369.84857178 C2524.0370221 2375.01935348 2524.82765969 2380.19581141 2525.59045029 2385.3787117 C2525.85685761 2387.16485155 2526.12999306 2388.95001217 2526.41244888 2390.73368454 C2529.28043625 2408.97119901 2529.48934856 2427.05288456 2529.4805584 2445.45897412 C2529.48043647 2448.85644875 2529.48909024 2452.25388272 2529.49733591 2455.65134567 C2529.51642218 2463.70208176 2529.51951111 2471.75271431 2529.51269531 2479.8034668 C2529.50609184 2487.98651827 2529.52880379 2496.16911475 2529.56600904 2504.35207421 C2529.5971849 2511.47924879 2529.60801476 2518.60628089 2529.60417223 2525.73352188 C2529.60215023 2529.94484381 2529.60684289 2534.1558128 2529.63206482 2538.36706734 C2530.12510845 2627.75434862 2504.1921562 2719.78231926 2453.47167969 2832.21582031 C2452.07209489 2835.07958614 2450.68604856 2837.94960151 2449.30078125 2840.8203125 C2443.09744684 2853.56346418 2436.19471813 2865.81083308 2428.92626953 2877.97460938 C2427.52456577 2880.33830875 2426.1385305 2882.70787274 2424.76513672 2885.08789062 C2418.63605587 2895.67811103 2412.08012135 2905.92007731 2405.26171875 2916.078125 C2404.7376947 2916.86172394 2404.21367065 2917.64532288 2403.67376709 2918.45266724 C2395.76136926 2930.27820782 2387.67381196 2941.91076836 2379.01171875 2953.203125 C2378.14247828 2954.35359972 2377.27395807 2955.50461908 2376.40625 2956.65625 C2364.02019286 2973.01519339 2350.82335267 2988.783215 2337.02734375 3003.96875 C2335.13727217 3006.06394563 2333.28959388 3008.18931066 2331.44921875 3010.328125 C2328.51659986 3013.70097536 2325.41392829 3016.84926751 2322.19921875 3019.953125 C2320.42325271 3021.77983292 2318.78929164 3023.62989028 2317.14209976 3025.56881591 C2311.94998029 3031.51379059 2306.32219207 3037.02996404 2300.73812252 3042.60207039 C2299.48131095 3043.85987427 2298.22471857 3045.11789721 2296.96832437 3046.37611799 C2293.50826914 3049.83992986 2290.04510612 3053.30061989 2286.58143596 3056.76081645 C2282.80234676 3060.53722232 2279.02616672 3064.31653533 2275.2496129 3068.09547636 C2268.60251275 3074.74597273 2261.95354828 3081.39460068 2255.30337835 3088.04202736 C2245.34781939 3097.99349809 2235.39514077 3107.94784582 2225.44302677 3117.90276159 C2208.4829378 3134.86745523 2191.52047217 3151.8297707 2174.5567131 3168.79079437 C2157.36055427 3185.98419527 2140.16548312 3203.17868287 2122.97174263 3220.37450218 C2122.15862389 3221.18771769 2122.15862389 3221.18771769 2121.32907851 3222.0173618 C2116.36133149 3226.98570035 2111.39359566 3231.95405008 2106.42587326 3236.92241326 C2093.96824352 3249.38164729 2081.5104396 3261.84070715 2069.05251777 3274.29964912 C2068.48161998 3274.87059382 2067.91072218 3275.44153851 2067.32252445 3276.02978457 C2039.17214691 3304.18244156 2011.01986117 3332.33319017 1982.86738777 3360.4837513 C1981.63397254 3361.71708289 1980.40055731 3362.95041449 1979.16714209 3364.18374608 C1978.55585866 3364.79498805 1977.94457524 3365.40623003 1977.31476807 3366.03599448 C1969.25371409 3374.09650196 1961.19266505 3382.15701438 1953.13162923 3390.21754003 C1952.51546685 3390.83366324 1951.89930448 3391.44978646 1951.26447051 3392.08458007 C1922.72231152 3420.62493853 1894.18126661 3449.16641097 1865.64046895 3477.70813076 C1862.5277206 3480.82097891 1859.4149701 3483.93382491 1856.30221984 3487.04667115 C1846.92021853 3496.42896304 1837.5382204 3505.81125811 1828.15622884 3515.19355974 C1799.5458804 3543.80485275 1770.93535979 3572.41597358 1742.32469082 3601.02694607 C1741.68762812 3601.66401564 1741.05056542 3602.30108521 1740.39419778 3602.95745992 C1699.1307477 3644.2213488 1657.86652769 3685.48446767 1616.60175419 3726.74703312 C1615.9429047 3727.40584749 1615.28405522 3728.06466185 1614.60524059 3728.74344029 C1592.5364109 3750.81109361 1570.46754137 3772.87870709 1548.39866776 3794.9463165 C1481.6597502 3861.68141357 1414.92169626 3928.41737392 1295.74170562 4047.60339397 C1273.67969635 4069.66666643 1251.61767973 4091.72993156 1229.55562687 4113.79316044 C1228.8969986 4114.45182395 1228.23837033 4115.11048747 1227.55978362 4115.78911049 C1186.31901439 4157.03208473 1145.07763389 4198.27444764 1103.83553982 4239.51609707 C1102.88025113 4240.47137562 1102.88025113 4240.47137562 1101.90566368 4241.44595274 C1073.31062725 4270.04068245 1044.71542505 4298.63524638 1016.12006946 4327.22965692 C1006.74188224 4336.60753459 997.36370262 4345.98541987 987.9855256 4355.36330774 C984.87447401 4358.47426333 981.76342174 4361.58521825 978.65236789 4364.69617158 C950.1097252 4393.23789494 921.56740975 4421.77994542 893.02613378 4450.32303548 C892.10253368 4451.24669403 892.10253368 4451.24669403 891.16027499 4452.18901236 C883.10428571 4460.24551345 875.04831184 4468.30202996 866.99233983 4476.35854834 C866.38157893 4476.96935065 865.77081803 4477.58015297 865.14154923 4478.20946444 C863.90933523 4479.441762 862.67712126 4480.6740596 861.44490734 4481.90635723 C833.33348774 4510.01968146 805.2217695 4538.13270683 777.10824287 4566.24392402 C776.53804846 4566.81407174 775.96785406 4567.38421946 775.38038103 4567.97164438 C762.94195432 4580.40904105 750.50338289 4592.84629296 738.0646691 4605.28340251 C733.10413122 4610.24330448 728.143611 4615.2032241 723.18309593 4620.16314888 C722.64198162 4620.70419778 722.10086731 4621.24524667 721.54335559 4621.80269099 C704.3688486 4638.97513812 687.19587476 4656.14911739 670.02378246 4673.32397913 C652.6541434 4690.69640553 635.28278184 4708.06710758 617.90930436 4725.43569537 C608.01934661 4735.3229761 598.13076897 4745.21163239 588.24418982 4755.10229151 C581.68765094 4761.66126459 575.12931818 4768.21844022 568.56949045 4774.77412402 C564.84480859 4778.49655504 561.12092234 4782.21977255 557.39923414 4785.94519685 C554.02348057 4789.32431013 550.64544179 4792.70112114 547.26555559 4796.07610069 C546.05293738 4797.28776224 544.84115482 4798.50026082 543.63031537 4799.71369992 C538.1096763 4805.24537288 532.60103055 4810.74471758 526.64205673 4815.81116281 C524.44808246 4817.68435062 522.35121031 4819.65349452 520.24731445 4821.62646484 C514.05041207 4827.4373435 507.68219791 4832.93695724 501.01171875 4838.203125 C500.37137695 4838.71069336 499.73103516 4839.21826172 499.07128906 4839.74121094 C420.20953463 4902.13852519 327.00906164 4941.45824896 179.01171875 4970.203125 C178.32458801 4970.30153687 177.63745728 4970.39994873 176.92950439 4970.50134277 C160.73303092 4972.80194253 144.49857171 4974.52643187 128.19921875 4975.890625 C127.47266083 4975.95156342 126.74610291 4976.01250183 125.99752808 4976.07528687 C107.73730675 4977.58599188 89.53362916 4978.36881531 71.2109375 4978.40625 C70.24871592 4978.40907738 69.28649433 4978.41190475 68.29511452 4978.41481781 C63.17810434 4978.42969256 58.06112138 4978.43898932 52.9440918 4978.44335938 C48.82909015 4978.44769172 44.71430438 4978.46139436 40.59936523 4978.484375 C10.94687205 4978.64638647 -18.43046264 4977.59345187 -47.98828125 4975.203125 C-49.26748444 4975.10070496 -50.54668762 4974.99828491 -51.86465454 4974.89276123 C-58.41612053 4974.35435958 -64.95332096 4973.72563092 -71.48828125 4973.015625 C-72.44013306 4972.91430267 -73.39198486 4972.81298035 -74.37268066 4972.70858765 C-163.97853217 4963.09394916 -252.46615867 4943.54057809 -337.98828125 4915.203125 C-339.69710109 4914.63948029 -341.40592271 4914.075841 -343.11474609 4913.51220703 C-386.67034544 4899.10888334 -429.33406006 4882.43950643 -470.98828125 4863.203125 C-472.1076709 4862.68782227 -473.22706055 4862.17251953 -474.38037109 4861.64160156 C-497.31076703 4851.07700617 -519.9293489 4840.08760033 -542.01904297 4827.84375 C-545.16010021 4826.10818803 -548.31001574 4824.38945641 -551.4609375 4822.671875 C-597.72045229 4797.35335101 -642.36730518 4767.89794386 -682.98828125 4734.203125 C-684.84239028 4732.70305376 -686.69655775 4731.20305475 -688.55078125 4729.703125 C-693.04319194 4726.02984333 -697.37794806 4722.21533673 -701.66796875 4718.30859375 C-703.68982309 4716.47394815 -705.73506647 4714.67543714 -707.80078125 4712.890625 C-717.66417718 4704.25285815 -727.08291092 4695.21018362 -736.36328125 4685.953125 C-737.07426971 4685.24601883 -737.07426971 4685.24601883 -737.79962158 4684.52462769 C-743.42225764 4678.92621139 -748.83633724 4673.23596302 -753.98828125 4667.203125 C-755.00958648 4666.04629112 -756.03298978 4664.89130575 -757.05859375 4663.73828125 C-765.15970155 4654.55903931 -772.72337886 4645.05605049 -779.98828125 4635.203125 C-780.49214355 4634.52024414 -780.99600586 4633.83736328 -781.51513672 4633.13378906 C-821.46820251 4578.60624011 -847.4100076 4513.62020668 -837.89038086 4445.1652832 C-831.26219837 4402.90583069 -810.40912767 4361.83900061 -781.21875 4330.609375 C-779.38502655 4328.63113744 -777.62284653 4326.62122688 -775.86512899 4324.57650232 C-771.99160786 4320.14526952 -767.89689415 4315.97511139 -763.7282486 4311.82283783 C-762.51631274 4310.60962061 -762.51631274 4310.60962061 -761.27989334 4309.37189394 C-758.57588624 4306.66624443 -755.86832505 4303.96418027 -753.1607666 4301.26208496 C-751.1999386 4299.30209698 -749.2398708 4297.34134939 -747.27976847 4295.38063574 C-743.01972487 4291.12006025 -738.75783868 4286.86133501 -734.49473 4282.60382652 C-728.15529239 4276.27269317 -721.81874938 4269.93866868 -715.48281191 4263.60403277 C-704.82180495 4252.9453588 -694.15854308 4242.28894347 -683.49406433 4231.63374329 C-668.92977486 4217.08206456 -654.36877313 4202.52709933 -639.80864483 4187.97125715 C-633.02341205 4181.18803054 -626.23801864 4174.40496462 -619.45258331 4167.62194061 C-618.77334059 4166.94293891 -618.09409787 4166.2639372 -617.39427204 4165.56435968 C-601.23159495 4149.40749223 -585.06734485 4133.25219879 -568.90283203 4117.09716797 C-568.19567727 4116.39042685 -567.48852251 4115.68368574 -566.75993881 4114.95552822 C-555.28426032 4103.48656665 -543.80848638 4092.01770059 -532.33270061 4080.54884636 C-521.57966507 4069.80230377 -510.82666449 4059.0557262 -500.07373047 4048.30908203 C-499.36695604 4047.60272219 -498.66018161 4046.89636235 -497.93198977 4046.16859766 C-481.79521574 4030.04127233 -465.65889186 4013.91349697 -449.52397919 3997.78430939 C-448.84582479 3997.10639599 -448.1676704 3996.42848258 -447.46896587 3995.73002635 C-440.69868376 3988.96212962 -433.92848035 3982.19415415 -427.15839443 3975.42606116 C-412.61465801 3960.88664086 -398.06954464 3946.3486019 -383.5216388 3931.81335337 C-372.91786942 3921.21876793 -362.31581482 3910.62246919 -351.71554768 3900.02437961 C-345.41761669 3893.72786345 -339.11827044 3887.43277079 -332.8169093 3881.13968739 C-328.60742149 3876.93545805 -324.39975176 3872.72941498 -320.19354833 3868.52189973 C-317.79738205 3866.12509282 -315.40016036 3863.72936815 -313.0012539 3861.33530205 C-310.41462076 3858.75364668 -307.83109321 3856.16892223 -305.2483139 3853.58341217 C-304.50663985 3852.84465097 -303.76496579 3852.10588978 -303.00081676 3851.34474188 C-299.825053 3848.15987756 -296.73632094 3844.95633475 -293.8181982 3841.53304195 C-288.36601721 3835.22043746 -282.35095299 3829.43176801 -276.44957733 3823.54416656 C-275.05681106 3822.15096372 -273.66426483 3820.75754087 -272.27191812 3819.36391872 C-268.44027445 3815.53003918 -264.60551679 3811.69928761 -260.77025203 3807.86903095 C-256.60015846 3803.70327516 -252.43297882 3799.53460618 -248.26543379 3795.36630106 C-240.95920675 3788.05954085 -233.65114389 3780.75462012 -226.34184074 3773.45093727 C-218.50011453 3765.61521882 -210.65948989 3757.77840054 -202.8202076 3749.94023705 C-202.32482821 3749.44492945 -201.82944883 3748.94962185 -201.31905794 3748.43930493 C-198.79304019 3745.91364207 -196.26704137 3743.38796027 -193.74105008 3740.86227094 C-176.02310565 3723.14650563 -158.30303207 3705.43287143 -140.58168485 3687.72051005 C-121.91064944 3669.05894134 -103.2408102 3650.3961773 -84.57273865 3631.73164368 C-83.72898578 3630.88805154 -83.72898578 3630.88805154 -82.8681874 3630.02741714 C-76.58294843 3623.74336924 -70.29774901 3617.45928177 -64.01256579 3611.17517811 C-52.38782236 3599.55243421 -40.76291261 3587.92985666 -29.13796234 3576.30731964 C-28.26550855 3575.43504627 -28.26550855 3575.43504627 -27.37542942 3574.54515121 C0.30526888 3546.87019371 27.98748285 3519.19675247 55.6700467 3491.52366105 C57.50680576 3489.68753034 59.34356405 3487.85139887 61.18032218 3486.01526723 C80.24004825 3466.96204549 99.29986533 3447.90891479 118.35969655 3428.85579823 C136.79996311 3410.42202756 155.24020395 3391.98823117 173.68036739 3373.55435735 C175.51661306 3371.71873834 177.35285949 3369.88312008 179.18910599 3368.0475019 C206.84731025 3340.39875118 234.50506247 3312.74954848 262.16139984 3285.09893036 C262.74260932 3284.51784154 263.3238188 3283.93675271 263.92264068 3283.33805514 C275.53455006 3271.72855208 287.14639347 3260.11898304 298.75809694 3248.50927403 C305.03742787 3242.23102265 311.31678689 3235.95279937 317.59617615 3229.67460632 C318.43884484 3228.83209733 318.43884484 3228.83209733 319.29853714 3227.97256796 C337.95935794 3209.3153201 356.62217772 3190.66007314 375.28594337 3172.0057712 C392.95547639 3154.34517846 410.62348004 3136.6830571 428.28959937 3119.01904958 C430.80759796 3116.50135405 433.32561559 3113.98367756 435.8436451 3111.46601295 C436.58405072 3110.725713 436.58405072 3110.725713 437.33941403 3109.97045749 C445.15791717 3102.15316584 452.97811149 3094.33756825 460.79901512 3086.52267828 C468.48764305 3078.83989538 476.17445453 3071.15529848 483.8594597 3063.46889169 C487.97104243 3059.35666622 492.08342553 3055.24524979 496.19801527 3051.13603288 C499.94019126 3047.39871494 503.68006112 3043.65910543 507.41809634 3039.91764606 C508.76323382 3038.57208694 510.10921379 3037.2273694 511.45613309 3035.88359391 C517.86002495 3029.49379518 524.15869493 3023.10904287 530.01171875 3016.203125 C531.7854892 3014.24850343 533.58758877 3012.32212341 535.38671875 3010.390625 C539.60570129 3005.81880043 543.62319343 3001.13057656 547.5234375 2996.28125 C549.38232361 2993.98171741 551.25786651 2991.70398952 553.15625 2989.4375 C562.17463869 2978.64736619 570.68769465 2967.53577865 579.01171875 2956.203125 C579.88473633 2955.01638184 579.88473633 2955.01638184 580.77539062 2953.80566406 C588.13129086 2943.78210194 595.24828326 2933.63559802 602.01171875 2923.203125 C602.78636475 2922.01323975 602.78636475 2922.01323975 603.57666016 2920.79931641 C651.71551384 2846.67362896 686.62894785 2765.43540558 728.01171875 2516.203125 C728.04676514 2514.69322998 728.04676514 2514.69322998 728.08251953 2513.15283203 C728.7056892 2481.55970097 727.18460772 2449.52350189 723.01171875 2418.203125 C722.80842893 2416.64487826 722.60531441 2415.08660865 722.40234375 2413.52832031 C710.22084304 2320.65855935 683.41266904 2232.570623 574.01171875 2043.203125 C573.55990234 2042.60209961 573.10808594 2042.00107422 572.64257812 2041.38183594 C559.65651211 2024.15684669 545.83440979 2007.54543499 531.24609375 1991.65625 C529.27562972 1989.49287341 527.35484253 1987.29843895 525.44921875 1985.078125 C522.28034141 1981.42459583 518.88819795 1978.03851527 515.41796875 1974.671875 C513.49816391 1972.7022051 511.71476449 1970.71092405 509.9289254 1968.62411588 C505.79067147 1963.88219431 501.3861219 1959.44032183 496.93016243 1954.99852085 C495.58266321 1953.64929085 495.58266321 1953.64929085 494.20794178 1952.27280367 C491.71908931 1949.78089655 489.22714458 1947.29210227 486.7346744 1944.80381441 C484.01171703 1942.08431046 481.2916846 1939.36188354 478.57127166 1936.63983476 C473.78622437 1931.85271314 468.99931916 1927.06745565 464.21120238 1922.28340423 C457.04321414 1915.12148061 449.87812883 1907.95665794 442.71361126 1900.7912626 C430.50314347 1888.5794643 418.29031477 1876.3700296 406.07621002 1864.16186905 C393.69675007 1851.7884119 381.31838691 1839.41385907 368.9413681 1827.03796005 C368.15992646 1826.2565902 367.37848483 1825.47522035 366.57336314 1824.67017263 C362.58884482 1820.68600918 358.60434542 1816.70182681 354.61985356 1812.71763691 C326.65609592 1784.75605964 298.69020785 1756.79661403 270.72304999 1728.8384377 C241.25492022 1699.37977076 211.78798342 1669.91991137 182.32281494 1640.45828247 C180.99167242 1639.12730069 180.99167242 1639.12730069 179.63363814 1637.76943038 C169.71806235 1627.85504563 159.80252611 1617.94062134 149.88700604 1608.02618086 C131.54707897 1589.68825343 113.20698563 1571.35049227 94.86685181 1553.01277161 C93.9491986 1552.09523868 93.03154539 1551.17770575 92.08608451 1550.23236879 C48.40412519 1506.55615155 4.72065119 1462.88144938 -38.96317295 1419.2070973 C-41.86204636 1416.30885244 -44.76091882 1413.41060661 -47.6597912 1410.51236071 C-76.76922544 1381.40921968 -105.87874481 1352.3061638 -134.98828125 1323.203125 C-164.5811308 1293.61688098 -194.17396097 1264.03061758 -223.76670546 1234.44426848 C-226.66518039 1231.54641996 -229.56365589 1228.64857201 -232.46213185 1225.75072453 C-276.59000305 1181.63241962 -320.71743419 1137.51367473 -364.84341431 1093.39347839 C-365.76039667 1092.47661669 -366.67737903 1091.55975498 -367.62214873 1090.61510959 C-385.94161998 1072.29804456 -404.2610253 1053.98091361 -422.58029073 1035.66364274 C-432.48662418 1025.75838887 -442.3929857 1015.85316309 -452.29937744 1005.94796753 C-453.18566326 1005.06178818 -454.07194908 1004.17560882 -454.98509205 1003.26257555 C-484.43958079 973.81166147 -513.89606894 944.36274803 -543.35350007 914.91477701 C-571.23800016 887.03921262 -599.12097501 859.16212346 -627.00206409 831.28314736 C-630.97400295 827.31151158 -634.94596084 823.33989482 -638.9179306 819.36828995 C-639.69656687 818.58972413 -640.47520313 817.81115832 -641.27743443 817.0089996 C-653.62294247 804.6647042 -665.97014324 792.32210336 -678.31804924 779.98020667 C-690.44997254 767.85412084 -702.5801294 755.72627041 -714.70839135 743.59652255 C-721.82494086 736.47921061 -728.94287119 729.36328627 -736.06282392 722.24937876 C-740.7870283 717.52891463 -745.50942708 712.80664937 -750.2303421 708.08289557 C-752.90925213 705.40247745 -755.58893959 702.7228497 -758.27085307 700.04543643 C-761.15218817 697.16890218 -764.02963758 694.28851195 -766.90672493 691.40772915 C-768.14688536 690.17150924 -768.14688536 690.17150924 -769.41209953 688.91031519 C-774.14095676 684.16766198 -778.63598656 679.29237449 -782.98828125 674.203125 C-783.94897224 673.10801455 -784.91095751 672.01403623 -785.875 670.921875 C-830.60623031 619.72499885 -858.49231123 556.17236362 -854.45703125 487.375 C-850.49930799 431.30725378 -825.93890099 376.86815411 -791.38818359 332.98388672 C-789.99727183 331.21456157 -788.62579845 329.43161969 -787.2578125 327.64453125 C-782.52535292 321.49583173 -777.62302989 315.51219243 -772.55078125 309.640625 C-771.83547241 308.81195923 -771.83547241 308.81195923 -771.10571289 307.96655273 C-761.92014346 297.44616052 -752.30602679 287.35285439 -742.4140625 277.49853516 C-740.72146778 275.81136542 -739.03437528 274.11882304 -737.34765625 272.42578125 C-731.72971395 266.80398904 -726.06109977 261.33758281 -719.98828125 256.203125 C-718.76146974 255.13459074 -717.53620821 254.06427432 -716.3125 252.9921875 C-698.35367167 237.34732729 -679.72584805 222.63268578 -660.30224609 208.84619141 C-658.7509692 207.74468334 -657.20183342 206.64015408 -655.65478516 205.53271484 C-616.16737056 177.27618927 -573.74627236 152.70879248 -530.19042969 131.29248047 C-528.2017346 130.30871578 -526.22196316 129.30999619 -524.24609375 128.30078125 C-455.08956639 93.03039111 -381.23447393 66.73800416 -306.57000732 45.92327881 C-304.17477111 45.255145 -301.78083929 44.58254417 -299.38720703 43.90869141 C-218.57797465 21.23709449 -135.22484832 8.21791938 -51.62109375 2 C-50.74217972 1.93356796 -49.86326569 1.86713593 -48.9577179 1.7986908 C-32.64140771 0.61804617 -16.35672978 0.03843921 0 0 Z " fill="#000000" transform="translate(2963.98828125,48.796875)"/>
<path d="M0 0 C1.21048004 0.00093658 2.42096008 0.00187317 3.66812134 0.00283813 C62.89161567 0.10172989 121.9294696 6.75970866 179.4375 21.1875 C180.14203308 21.36390015 180.84656616 21.54030029 181.57244873 21.7220459 C269.84785275 43.91982587 356.73490759 81.65092976 434.47216797 138.74414062 C436.94023291 140.55671205 439.44010059 142.32131697 441.9440918 144.08374023 C449.65683523 149.51970686 457.08316971 155.27801306 464.4375 161.1875 C465.08509277 161.70747559 465.73268555 162.22745117 466.39990234 162.76318359 C478.23798187 172.28692287 489.94974204 181.93854348 501.1953125 192.16015625 C503.14958424 193.92717199 505.12809737 195.65663529 507.125 197.375 C518.45323258 207.26517974 529.19691846 217.79863484 539.81483936 228.4394902 C541.09360587 229.71726211 542.37259117 230.99481509 543.65177141 232.2721728 C547.14118615 235.7578641 550.62752173 239.24662043 554.11332823 242.73591957 C557.92977372 246.5550662 561.74914733 250.37128279 565.56813377 254.18788826 C572.27833502 260.89470479 578.9866834 267.60337011 585.69381666 274.3132547 C595.73456184 284.35810006 605.77819826 294.40005098 615.82239222 304.44144762 C632.94198428 321.55634793 650.05911297 338.6737102 667.1749897 355.79232597 C684.51864196 373.13873877 701.86338457 390.48406024 719.20945549 407.82805443 C719.75687924 408.37541366 720.30430299 408.9227729 720.86831534 409.48671878 C725.88522666 414.50303855 730.90214916 419.51934715 735.91908509 424.53564232 C748.49855951 437.11351271 761.07785994 449.69155709 773.6570425 462.26971936 C774.23341749 462.84604744 774.80979247 463.42237552 775.40363336 464.01616809 C803.80594539 492.41620212 832.20635082 520.81814257 860.60656738 549.22027206 C861.85041111 550.46419942 863.09425483 551.70812678 864.33809856 552.95205414 C864.95455158 553.56854862 865.57100461 554.1850431 866.20613803 554.82021923 C874.33557336 562.95020108 882.46501365 571.08017798 890.59446716 579.21014166 C891.52658213 580.14231537 891.52658213 580.14231537 892.47752771 581.09332088 C921.27628249 609.89387703 950.07615224 638.69331813 978.87626864 667.49251268 C982.01826068 670.63440492 985.16025058 673.77629932 988.30224071 676.91819348 C997.77253367 686.38819584 1007.2428298 695.85819503 1016.71313249 705.32818766 C1045.591278 734.20538866 1074.46925139 763.08276179 1103.34707642 791.96028328 C1103.9900482 792.60324819 1104.63301998 793.24621311 1105.29547576 793.90866181 C1146.93298231 835.54572965 1188.56971916 877.18356711 1230.2059021 918.82195854 C1231.20287641 919.81898553 1231.20287641 919.81898553 1232.21999162 920.83615448 C1254.48250513 943.09984434 1276.74497878 965.36357406 1299.00744836 987.62730785 C1366.34034975 1054.96403027 1433.67411531 1122.29988819 1553.94055296 1242.56029712 C1576.20726774 1264.8257487 1598.47397517 1287.09120763 1620.74064636 1309.3567028 C1621.40539003 1310.02141123 1622.0701337 1310.68611965 1622.75502111 1311.37097075 C1664.37808233 1352.991827 1706.00053226 1394.61329447 1747.62226868 1436.23547554 C1748.26497292 1436.87818654 1748.90767716 1437.52089754 1749.56985729 1438.18308463 C1778.42696529 1467.04049933 1807.2839075 1495.89807981 1836.14069632 1524.75581369 C1845.60443177 1534.21985869 1855.06817484 1543.68389609 1864.53192049 1553.1479309 C1867.67132022 1556.28742663 1870.81071927 1559.42692303 1873.95011674 1562.56642101 C1902.75122553 1591.3684491 1931.55266134 1620.17015004 1960.35513687 1648.97081137 C1961.28712991 1649.90274595 1961.28712991 1649.90274595 1962.23795109 1650.85350749 C1970.3670421 1658.9820867 1978.49614853 1667.11065049 1986.62525683 1675.2392124 C1987.24155517 1675.85546934 1987.85785352 1676.47172627 1988.49282757 1677.10665765 C1989.73621124 1678.34995776 1990.97959494 1679.59325783 1992.22297868 1680.83655787 C2020.58830193 1709.19997654 2048.95332641 1737.56369377 2077.31654263 1765.92921948 C2077.89178508 1766.50450862 2078.46702753 1767.07979776 2079.05970157 1767.6725199 C2091.60808843 1780.2219368 2104.15633054 1792.77149842 2116.70443027 1805.32120241 C2121.70852436 1810.32593241 2126.71263611 1815.33064475 2131.71675301 1820.33535194 C2132.26262078 1820.88128513 2132.80848855 1821.42721832 2133.37089777 1821.98969494 C2150.69635778 1839.31721481 2168.02334994 1856.64320153 2185.35122455 1873.96830672 C2202.87809462 1891.49238949 2220.40324047 1909.01819469 2237.92627189 1926.54611591 C2247.90139344 1936.52391452 2257.87789065 1946.50033296 2267.85639057 1956.47475299 C2274.4734664 1963.08939471 2281.08874496 1969.70583017 2287.70253149 1976.32376076 C2291.45798949 1980.0814697 2295.21423423 1983.83838287 2298.97268545 1987.59309821 C2302.38166715 1990.99872048 2305.78834713 1994.40662756 2309.19319506 1997.81638252 C2310.41564812 1999.03979234 2311.63893843 2000.26236629 2312.86316898 2001.48399744 C2318.43130804 2007.04112875 2323.9691612 2012.58500908 2329.07044913 2018.58207334 C2331.23909708 2021.1288734 2333.53265499 2023.55241865 2335.8125 2026 C2340.1062538 2030.64788542 2344.1728184 2035.43166348 2348.140625 2040.36328125 C2350.16282938 2042.84976725 2352.22911879 2045.29035799 2354.31958008 2047.71948242 C2360.77819658 2055.24089464 2366.82235152 2063.04589583 2372.77246094 2070.97363281 C2374.37290342 2073.10161118 2375.98659221 2075.21897645 2377.6015625 2077.3359375 C2395.12245048 2100.50650437 2410.85027463 2125.08636333 2425.4375 2150.1875 C2426.44359543 2151.89347397 2427.45009218 2153.59921134 2428.45703125 2155.3046875 C2453.64645466 2198.30795032 2473.33770594 2244.07810259 2489.4375 2291.1875 C2489.78232422 2292.19458008 2490.12714844 2293.20166016 2490.48242188 2294.23925781 C2507.68259447 2344.98479625 2518.77920261 2397.85625878 2524.75 2451.0625 C2524.97091309 2453.02413086 2524.97091309 2453.02413086 2525.19628906 2455.02539062 C2525.65716519 2459.40965014 2526.06064168 2463.79534983 2526.4375 2468.1875 C2526.52363556 2469.16596893 2526.60977112 2470.14443787 2526.69851685 2471.15255737 C2528.45076227 2491.6092245 2528.8016214 2511.96553211 2528.75555801 2532.48448944 C2528.74991312 2535.03932254 2528.74709547 2537.59414899 2528.74447632 2540.14898682 C2528.70867828 2564.17389578 2528.43663877 2588.07888692 2525.69073486 2611.97387695 C2525.42447326 2614.30137171 2525.17035281 2616.62999903 2524.91748047 2618.95898438 C2516.30675482 2697.31936498 2495.78310987 2774.39907576 2456.4375 2862.1875 C2455.99164551 2863.16041992 2455.54579102 2864.13333984 2455.08642578 2865.13574219 C2449.25921418 2877.81177573 2442.853356 2890.09816965 2436.05566406 2902.27929688 C2434.37551205 2905.29890623 2432.7142366 2908.32839954 2431.0546875 2911.359375 C2423.37041167 2925.32616776 2415.18658878 2938.8636236 2406.4375 2952.1875 C2405.91414063 2952.98768555 2405.39078125 2953.78787109 2404.8515625 2954.61230469 C2389.01603262 2978.77756443 2371.90989877 3001.96768852 2353.4375 3024.1875 C2352.94910645 3024.77499023 2352.46071289 3025.36248047 2351.95751953 3025.96777344 C2346.58635218 3032.40884413 2341.10651252 3038.73848535 2335.46484375 3044.9453125 C2333.69782801 3046.89958424 2331.96836471 3048.87809737 2330.25 3050.875 C2316.12597539 3066.97869572 2300.81681098 3081.96637094 2285.6828321 3097.10784362 C2281.99908913 3100.79448331 2278.31818205 3104.48395284 2274.63688225 3108.17303187 C2267.35012759 3115.47427356 2260.06070993 3122.77285111 2252.77043009 3130.07057272 C2246.70786826 3136.13947934 2240.64646998 3142.20954606 2234.58580971 3148.28035164 C2233.27070891 3149.59765293 2233.27070891 3149.59765293 2231.92904043 3150.94156637 C2230.14071135 3152.7328962 2228.35238402 3154.52422777 2226.5640584 3156.31556106 C2203.46589378 3179.45214681 2180.36106264 3202.58207068 2157.25501414 3225.71078242 C2154.26237415 3228.70636072 2151.26976291 3231.70196774 2148.27715573 3234.69757882 C2109.65789216 3273.35554772 2071.03605324 3312.01094322 2032.40838703 3350.66051617 C2023.81265021 3359.26114544 2015.21699866 3367.86185992 2006.62138413 3376.4626114 C2005.00276974 3378.08219143 2003.3841516 3379.7017677 2001.76553343 3381.32134396 C1967.61298393 3415.49421104 1933.47256616 3449.67916496 1899.3394097 3483.87140183 C1874.40647247 3508.84748394 1849.47186029 3533.82188131 1824.52478695 3558.78384495 C1824.012061 3559.29687852 1823.49933506 3559.80991209 1822.97107196 3560.33849213 C1811.71735269 3571.59889244 1800.46266094 3582.85832028 1789.20705441 3594.11683412 C1784.67899837 3598.64608975 1780.15107092 3603.17547393 1775.6231823 3607.70489693 C1774.87987798 3608.44844267 1774.87987798 3608.44844267 1774.12155741 3609.20700954 C1758.15059708 3625.18327727 1742.19054564 3641.17038985 1726.23609538 3657.16314374 C1709.73347837 3673.70526099 1693.21848127 3690.23491055 1676.68891478 3706.75010806 C1667.15431074 3716.27719005 1657.6296574 3725.81397842 1648.11873889 3735.36470712 C1641.77411978 3741.73396954 1635.41700197 3748.09056744 1629.04934717 3754.43679969 C1625.41586085 3758.05879085 1621.7882772 3761.68621763 1618.17574365 3765.32911741 C1614.89370752 3768.63852448 1611.59618315 3771.93160182 1608.28519016 3775.212031 C1607.09349656 3776.39840263 1605.90772501 3777.59075805 1604.72848728 3778.78951143 C1603.13277526 3780.40993231 1601.51718109 3782.00745717 1599.89461714 3783.600923 C1599.00288865 3784.49351961 1598.11116017 3785.38611622 1597.19240961 3786.30576121 C1593.73732084 3788.66575681 1591.53611696 3788.55943411 1587.4375 3788.1875 C1587.7778125 3787.60226563 1588.118125 3787.01703125 1588.46875 3786.4140625 C1625.45498529 3720.90120957 1615.56541239 3642.82381627 1596.23852539 3573.25708008 C1587.91251996 3543.68855367 1577.91239602 3514.67539284 1566.4375 3486.1875 C1566.1764447 3485.53881958 1565.9153894 3484.89013916 1565.64642334 3484.22180176 C1552.61069352 3451.907452 1537.78491569 3420.37786762 1522.39318848 3389.12817383 C1521.45069581 3387.21429615 1520.50991936 3385.29958218 1519.56933594 3383.38476562 C1512.37210179 3368.74812527 1504.89543893 3354.30659909 1497 3340.03466797 C1494.71065735 3335.86305641 1492.47071883 3331.66541277 1490.22680664 3327.46923828 C1484.01603451 3315.86122127 1477.64205363 3304.36705666 1471.04736328 3292.97314453 C1469.28409349 3289.92205136 1467.53028815 3286.86563016 1465.77734375 3283.80859375 C1458.68086927 3271.44629004 1451.50134741 3259.14220877 1444.11279297 3246.95214844 C1442.21898008 3243.82688799 1440.33037079 3240.69850561 1438.44140625 3237.5703125 C1425.33910944 3215.89356177 1411.92145654 3194.42222605 1398.28369141 3173.078125 C1396.30535833 3169.9806027 1394.33040536 3166.88093879 1392.35546875 3163.78125 C1390.96629733 3161.60407 1389.57697734 3159.42698478 1388.1875 3157.25 C1387.56238525 3156.26845947 1386.93727051 3155.28691895 1386.29321289 3154.27563477 C1381.55094111 3146.85566537 1376.68465722 3139.52412575 1371.78704834 3132.20639038 C1369.45469193 3128.71724385 1367.13235486 3125.2214365 1364.80859375 3121.7265625 C1353.71360853 3105.05111564 1342.5800237 3088.40604486 1331.2734375 3071.87304688 C1329.51272489 3069.29753641 1327.75581393 3066.71947671 1326 3064.140625 C1315.28666764 3048.42063138 1304.3457808 3032.86082985 1293.36328125 3017.328125 C1291.39866134 3014.54945056 1289.43795993 3011.7680758 1287.48046875 3008.984375 C1281.75866765 3000.85220887 1275.9837253 2992.76143209 1270.15258789 2984.70727539 C1266.89808033 2980.21202645 1263.65784301 2975.70727967 1260.4375 2971.1875 C1250.47934666 2957.22421707 1240.38805145 2943.36231513 1230.19482422 2929.56982422 C1228.4599021 2927.2178695 1226.73094856 2924.86165161 1225.00390625 2922.50390625 C1218.23252508 2913.26775389 1211.35942169 2904.11841804 1204.39892578 2895.02392578 C1200.01704622 2889.28889644 1195.70231215 2883.51001212 1191.4375 2877.6875 C1185.87075989 2870.0898557 1180.19564362 2862.58122383 1174.47314453 2855.1003418 C1169.88160223 2849.0947817 1165.3354732 2843.05732209 1160.8125 2837 C1154.311689 2828.30266924 1147.66940159 2819.72265407 1140.98193359 2811.16845703 C1138.78627966 2808.35221675 1136.611186 2805.52073837 1134.4375 2802.6875 C1128.74726173 2795.27717337 1123.00542049 2787.90723186 1117.26513672 2780.53564453 C1115.44763402 2778.20052017 1113.63174212 2775.8641529 1111.81640625 2773.52734375 C1105.59067215 2765.51409827 1099.35231893 2757.5113629 1093.07421875 2749.5390625 C1091.30122825 2747.2875418 1089.53337245 2745.03213236 1087.76953125 2742.7734375 C1082.86835943 2736.50373363 1077.90912452 2730.28860381 1072.875 2724.125 C1068.14799647 2718.33742425 1063.55910744 2712.46931591 1059.02734375 2706.52734375 C1055.55159627 2702.00927918 1051.92913945 2697.6102697 1048.32202148 2693.19702148 C1044.83051905 2688.91950883 1041.39323761 2684.60575155 1038 2680.25 C1033.31696845 2674.24445761 1028.48668003 2668.36899278 1023.62915039 2662.50415039 C1020.00060628 2658.11347804 1016.4360035 2653.68233057 1012.9375 2649.1875 C1007.11111632 2641.70557336 1001.06775685 2634.40715509 995.02099609 2627.10302734 C991.47463123 2622.81305221 987.95885259 2618.49800694 984.4375 2614.1875 C982.93764304 2612.35404964 981.4376406 2610.52071829 979.9375 2608.6875 C976.9375 2605.02083333 973.9375 2601.35416667 970.9375 2597.6875 C970.19242188 2596.77742188 969.44734375 2595.86734375 968.6796875 2594.9296875 C967.2034514 2593.12425589 965.72943264 2591.31700859 964.2578125 2589.5078125 C960.18083695 2584.50227313 956.05709348 2579.54265921 951.875 2574.625 C948.00519574 2570.07455686 944.23790487 2565.45917649 940.52734375 2560.77734375 C937.60529685 2557.15619031 934.58928514 2553.61795431 931.57421875 2550.07421875 C928.65745487 2546.64178391 925.78056574 2543.18157185 922.9375 2539.6875 C919.64926517 2535.64766863 916.31028574 2531.65657935 912.9375 2527.6875 C909.56471426 2523.71842065 906.22573483 2519.72733137 902.9375 2515.6875 C897.85574323 2509.44833244 892.64855894 2503.31858038 887.4375 2497.1875 C877.06938559 2484.98887712 877.06938559 2484.98887712 872.0625 2478.8125 C867.89528876 2473.68936933 863.57437543 2468.71155072 859.23486328 2463.73486328 C856.07297557 2460.10030797 852.96907059 2456.43238132 849.9375 2452.6875 C844.80623873 2446.35550484 839.43893725 2440.23460553 834.08837891 2434.08837891 C827.18591856 2426.14064802 820.37010085 2418.11848263 813.57714844 2410.07714844 C805.55491511 2400.58694389 797.43911393 2391.17777634 789.29345703 2381.79345703 C785.16196134 2377.03108577 781.05561778 2372.24772737 776.95703125 2367.45703125 C772.75953098 2362.55443907 768.53361068 2357.67690208 764.30175781 2352.80395508 C760.57670722 2348.51144247 756.87752309 2344.1976322 753.1875 2339.875 C749.76309051 2335.86402499 746.30023272 2331.90094895 742.75 2328 C739.7583184 2324.70807795 736.91225577 2321.34158693 734.125 2317.875 C730.23429292 2313.06084412 726.10749534 2308.53825666 721.87963867 2304.02416992 C717.97781611 2299.83456391 714.36439822 2295.46595286 710.78125 2291 C707.61946559 2287.20585871 704.25204636 2283.62466235 700.87670898 2280.02124023 C697.77969916 2276.695952 694.84128316 2273.30030061 692 2269.75 C687.97174482 2264.72747494 683.64272954 2260.06006333 679.23242188 2255.37695312 C676.00980657 2251.93623783 672.942485 2248.43769536 670 2244.75 C665.78975485 2239.48525514 661.21874656 2234.62752792 656.59008789 2229.73461914 C653.22278187 2226.15643041 650.00375459 2222.53175949 646.9375 2218.6875 C642.16149323 2212.70407579 636.91470585 2207.19974279 631.66796875 2201.6328125 C628.7246576 2198.50706818 625.86919781 2195.31876839 623.06640625 2192.06640625 C619.5859145 2188.05173831 615.99839146 2184.13076906 612.4375 2180.1875 C607.66716063 2174.90490942 602.91855593 2169.60815865 598.2421875 2164.2421875 C594.68110802 2160.18779831 591.0533775 2156.192967 587.4375 2152.1875 C585.18953023 2149.69062008 582.94241993 2147.19296849 580.6953125 2144.6953125 C579.17041756 2143.00157106 577.64434598 2141.30888831 576.1171875 2139.6171875 C572.73837292 2135.87185744 569.36854035 2132.12231793 566.0625 2128.3125 C562.60830696 2124.34419451 559.04619442 2120.47737441 555.48266602 2116.60766602 C552.950393 2113.85311908 550.44729797 2111.08024925 548 2108.25 C544.37537911 2104.06640143 540.60364933 2100.0231539 536.84008789 2095.96508789 C533.61074129 2092.47678664 530.45250963 2088.9401582 527.34375 2085.34375 C524.75465042 2082.41509638 522.09555319 2079.55351823 519.4375 2076.6875 C516.22590358 2073.22462954 513.0264722 2069.76101686 509.9375 2066.1875 C506.37932153 2062.07389854 502.6790788 2058.09654725 498.98266602 2054.10766602 C495.18599125 2050.00768379 491.43736766 2045.86753258 487.70703125 2041.70703125 C483.31878446 2036.83539755 478.87376191 2032.01537676 474.4375 2027.1875 C464.07559743 2015.91089154 464.07559743 2015.91089154 459 2010.25 C454.54106085 2005.28237617 450.01311669 2000.38066748 445.48046875 1995.48046875 C441.23678568 1990.89179271 437.01709459 1986.28118397 432.79638672 1981.67138672 C430.51107506 1979.17585595 428.22422251 1976.68173792 425.9375 1974.1875 C423.19846752 1971.1999059 420.45972787 1968.21204703 417.72265625 1965.22265625 C411.48301623 1958.40915316 405.22342351 1951.61435775 398.95361328 1944.82861328 C396.94703341 1942.65659558 394.94136308 1940.48373927 392.93579102 1938.31079102 C391.93505842 1937.22656892 390.93424431 1936.14242206 389.93334961 1935.05834961 C387.45688674 1932.37601745 384.98134728 1929.69284524 382.5078125 1927.0078125 C377.15037623 1921.19449998 371.77403204 1915.39971897 366.375 1909.625 C362.20632302 1905.16624927 358.05580274 1900.69283853 353.9375 1896.1875 C348.08350034 1889.78495572 342.16181896 1883.44672186 336.23583984 1877.11083984 C333.30082297 1873.9718142 330.36931184 1870.82951877 327.4375 1867.6875 C326.27085074 1866.43748376 325.10418406 1865.18748377 323.9375 1863.9375 C302.93750001 1841.43750001 302.93750001 1841.43750001 301.18774414 1839.56274414 C300.02028686 1838.31190869 298.85280637 1837.06109491 297.68530273 1835.81030273 C294.78054226 1832.69826179 291.87617748 1829.58585348 288.97265625 1826.47265625 C275.83673109 1812.38973114 262.65643222 1798.3488256 249.45361328 1784.32861328 C246.77969547 1781.48891127 244.10644822 1778.64857861 241.43334961 1775.80810547 C240.10752324 1774.39940481 238.78151541 1772.99087491 237.45532227 1771.58251953 C234.01842715 1767.9323232 230.58481774 1764.27911419 227.15625 1760.62109375 C226.44984375 1759.86828125 225.7434375 1759.11546875 225.015625 1758.33984375 C223.68123122 1756.91766091 222.34781274 1755.49456199 221.015625 1754.0703125 C217.17258487 1749.97699035 213.25423793 1745.97632915 209.25341797 1742.03686523 C207.44018375 1740.19023319 205.74256928 1738.2803784 204.0625 1736.3125 C201.32128551 1733.12067491 198.43064112 1730.14447023 195.4375 1727.1875 C192.52696199 1724.31192341 189.71325978 1721.42875906 187.0625 1718.3125 C184.02319233 1714.75463747 180.76385654 1711.47308612 177.4375 1708.1875 C174.1736675 1704.96352502 170.96919814 1701.752321 168 1698.25 C164.83740018 1694.52792307 161.40779304 1691.11883928 157.9375 1687.6875 C153.90451526 1683.69973443 150.04347535 1679.67255092 146.375 1675.34375 C143.67719378 1672.34135276 140.80705743 1669.52489652 137.9375 1666.6875 C131.14997399 1659.97587588 131.14997399 1659.97587588 128.0625 1656.3125 C124.01388935 1651.53147737 119.4994646 1647.19962859 115.02978516 1642.81689453 C111.88280419 1639.71256225 108.85429144 1636.56885707 105.96875 1633.21875 C102.32683509 1628.9951119 98.41715701 1625.09091837 94.4375 1621.1875 C90.47882627 1617.30466293 86.58691662 1613.42409338 82.96875 1609.21875 C79.17607952 1604.81546818 75.08176794 1600.75763076 70.9375 1596.6875 C66.82476909 1592.64834209 62.75657455 1588.62612576 59 1584.25 C54.89444846 1579.47817609 50.4215791 1575.10074057 45.9375 1570.6875 C36.83924402 1561.73297634 36.83924402 1561.73297634 33.03125 1557.28125 C28.46520348 1551.96215051 23.42553769 1547.10533072 18.4375 1542.1875 C7.78093833 1531.68093015 7.78093833 1531.68093015 4 1527.25 C-0.85074348 1521.57924988 -6.25580936 1516.42628052 -11.5625 1511.1875 C-23.28537243 1499.61464605 -23.28537243 1499.61464605 -26.90625 1495.34375 C-32.5377971 1488.74406769 -38.9005186 1482.78521439 -45.0625 1476.6875 C-47.63843219 1474.13843376 -50.21084314 1471.58588646 -52.78125 1469.03125 C-53.35750122 1468.46329712 -53.93375244 1467.89534424 -54.52746582 1467.31018066 C-57.47070011 1464.38438587 -60.28272379 1461.3985771 -62.99414062 1458.25585938 C-66.6240936 1454.05870265 -70.49134441 1450.14839366 -74.4375 1446.25 C-75.16565918 1445.52562744 -75.89381836 1444.80125488 -76.64404297 1444.05493164 C-78.94775646 1441.76331697 -81.25469474 1439.47499348 -83.5625 1437.1875 C-86.60714779 1434.16964919 -89.64832967 1431.14836584 -92.6875 1428.125 C-93.37312012 1427.44767822 -94.05874023 1426.77035645 -94.76513672 1426.07250977 C-97.93497742 1422.91859206 -100.99949943 1419.73177194 -103.91210938 1416.33789062 C-108.30066683 1411.25282504 -113.07517664 1406.56960053 -117.84375 1401.84375 C-118.82618378 1400.86573581 -119.80831488 1399.88741749 -120.79016113 1398.90881348 C-123.87810571 1395.83218605 -126.96998814 1392.75953564 -130.0625 1389.6875 C-133.65180463 1386.12196097 -137.23938508 1382.55472072 -140.82273865 1378.98320007 C-142.24241157 1377.56991371 -143.66516999 1376.15972889 -145.0880127 1374.74963379 C-145.96582397 1373.87512573 -146.84363525 1373.00061768 -147.74804688 1372.09960938 C-148.89219055 1370.96332092 -148.89219055 1370.96332092 -150.05944824 1369.80407715 C-152.08086917 1367.6909751 -154.00242423 1365.54744385 -155.91333008 1363.33666992 C-159.37444921 1359.35300412 -163.01792848 1355.60358759 -166.76367188 1351.88867188 C-167.44595352 1351.20785049 -168.12823517 1350.52702911 -168.83119202 1349.82557678 C-170.2988622 1348.36168396 -171.76768542 1346.89894641 -173.23756409 1345.43727112 C-175.56960692 1343.11810487 -177.89841268 1340.79573041 -180.22644043 1338.47253418 C-185.16898286 1333.54136569 -190.11544504 1328.61414087 -195.0625 1323.6875 C-200.79951516 1317.97415872 -206.53487172 1312.25917277 -212.26600647 1306.53993225 C-214.54991518 1304.26246126 -216.83683646 1301.98804594 -219.12390137 1299.71374512 C-220.53652632 1298.30475586 -221.94900929 1296.89562422 -223.36132812 1295.48632812 C-223.98906631 1294.86375626 -224.6168045 1294.24118439 -225.26356506 1293.5997467 C-228.22345103 1290.6402103 -231.07163503 1287.63562892 -233.79480076 1284.45604038 C-237.47897842 1280.22782503 -241.36503815 1276.24514265 -245.33580017 1272.28721619 C-246.08751025 1271.53394611 -246.83922033 1270.78067604 -247.61370951 1270.0045796 C-250.11372659 1267.50059854 -252.61727314 1265.00017771 -255.12084961 1262.49975586 C-256.92189387 1260.69735552 -258.72272555 1258.89474274 -260.52336121 1257.0919342 C-264.89534552 1252.71587199 -269.26965567 1248.34214686 -273.64513176 1243.96957629 C-277.20318159 1240.41379079 -280.76024694 1236.85702321 -284.31662178 1233.29956245 C-285.07773416 1232.53822022 -285.07773416 1232.53822022 -285.85422255 1231.76149734 C-286.88521619 1230.73018395 -287.9162076 1229.69886834 -288.94719679 1228.66755051 C-298.60025651 1219.01164366 -308.25637109 1209.35879642 -317.91354407 1199.7070036 C-326.1881589 1191.43685611 -334.46014848 1183.16409038 -342.73022461 1174.8894043 C-352.34900885 1165.26526076 -361.96942324 1155.64275155 -371.59242064 1146.02282053 C-372.61980333 1144.99575637 -373.64718394 1143.96869013 -374.67456245 1142.94162178 C-375.17996813 1142.43637038 -375.68537381 1141.93111897 -376.20609481 1141.41055692 C-379.75650763 1137.86100519 -383.30576357 1134.31029924 -386.85456657 1130.75913811 C-391.63661955 1125.97397719 -396.42133545 1121.19149445 -401.20782661 1116.41077232 C-402.96141714 1114.65850115 -404.71416262 1112.90538382 -406.46598816 1111.15134811 C-408.86241964 1108.75217271 -411.26192863 1106.35611684 -413.66221619 1103.96080017 C-414.3500731 1103.27071253 -415.03793002 1102.58062489 -415.74663109 1101.86962551 C-419.61819647 1098.01353169 -423.59166607 1094.33760234 -427.74203402 1090.78259379 C-430.89117064 1088.0233177 -433.822553 1085.04993122 -436.76953125 1082.078125 C-437.44059906 1081.40559692 -438.11166687 1080.73306885 -438.80307007 1080.04016113 C-440.2456823 1078.59377216 -441.68713929 1077.14623019 -443.12753296 1075.69763184 C-445.41309287 1073.39919248 -447.70186328 1071.10399291 -449.99145508 1068.80957031 C-455.67461219 1063.113114 -461.35229087 1057.41120741 -467.03015137 1051.70947266 C-471.8385461 1046.88128244 -476.64902743 1042.05518926 -481.46224976 1037.23181152 C-483.7064828 1034.98114201 -485.94765923 1032.72745969 -488.1887207 1030.47363281 C-489.57748694 1029.0812308 -490.9663956 1027.68897082 -492.35546875 1026.296875 C-492.96868988 1025.67848755 -493.58191101 1025.0601001 -494.2137146 1024.42297363 C-497.9216575 1020.71458651 -501.76286892 1017.22390196 -505.72964478 1013.79450989 C-508.07082676 1011.74180952 -510.28084553 1009.58197633 -512.47460938 1007.37304688 C-513.34911743 1006.4952356 -514.22362549 1005.61742432 -515.12463379 1004.7130127 C-516.04256714 1003.78678101 -516.96050049 1002.86054932 -517.90625 1001.90625 C-518.88426419 1000.92381622 -519.86258251 999.94168512 -520.84118652 998.95983887 C-524.43748984 995.35030682 -528.02826596 991.73529294 -531.61920166 988.12042236 C-534.66605579 985.0536925 -537.71505126 981.98912086 -540.76679993 978.92726135 C-542.18008629 977.50758843 -543.59027111 976.08483001 -545.00036621 974.6619873 C-549.42196916 970.22368292 -553.89961984 965.95144261 -558.65319824 961.87194824 C-562.0884935 958.8412188 -565.28172946 955.57019981 -568.5 952.3125 C-569.58655884 951.22026123 -569.58655884 951.22026123 -570.69506836 950.10595703 C-573.75792424 947.02693049 -576.81472311 943.94191677 -579.87207031 940.85742188 C-582.12094117 938.59034542 -584.37290238 936.32637034 -586.625 934.0625 C-587.30232178 933.37687988 -587.97964355 932.69125977 -588.67749023 931.98486328 C-592.53089337 928.1120057 -596.49985135 924.45769297 -600.63574219 920.8894043 C-603.69071696 918.19094648 -606.54605826 915.3082319 -609.40625 912.40625 C-610.01964233 911.78907104 -610.63303467 911.17189209 -611.26501465 910.53601074 C-613.84999518 907.93491211 -616.42887822 905.32779986 -619.00830078 902.72119141 C-628.0345471 893.56609367 -628.0345471 893.56609367 -637.57226562 884.95507812 C-642.81788146 880.29631235 -647.64586745 875.15055719 -652.57177734 870.15771484 C-657.7451265 864.92047642 -662.92810807 859.7834728 -668.52929688 854.99804688 C-673.86519004 850.24648783 -678.77126012 845.01161276 -683.78515625 839.92578125 C-688.2342576 835.43782312 -692.72042093 831.10331048 -697.51611328 826.98925781 C-719.93182672 807.2531608 -736.80735827 785.0809532 -749.5625 758.1875 C-750.366875 756.52654297 -750.366875 756.52654297 -751.1875 754.83203125 C-755.99741832 744.34791241 -758.89972616 733.38180943 -761.5625 722.1875 C-761.74474121 721.45063965 -761.92698242 720.7137793 -762.11474609 719.95458984 C-768.71621115 692.13647591 -765.13789887 661.21091732 -759.98040771 633.43951416 C-759.54805908 631.10968099 -759.12457223 628.77834045 -758.70166016 626.44677734 C-751.91626714 589.32485352 -742.5317506 552.9710476 -730.5625 517.1875 C-730.22765594 516.18456909 -730.22765594 516.18456909 -729.88604736 515.16137695 C-712.77915813 464.06954835 -689.6143004 415.15546445 -661.5625 369.1875 C-660.97162598 368.21248535 -660.38075195 367.2374707 -659.77197266 366.23291016 C-652.73027614 354.62060325 -645.40614629 343.27362185 -637.5625 332.1875 C-637.14935547 331.59952637 -636.73621094 331.01155273 -636.31054688 330.40576172 C-623.68995066 312.44991347 -610.43246803 294.93767239 -596.1640625 278.2578125 C-593.81992299 275.51015955 -591.56366684 272.69949772 -589.3125 269.875 C-584.36908149 263.79760736 -578.99304048 258.14947098 -573.6015625 252.47265625 C-570.94125936 249.67010902 -568.32438732 246.83246994 -565.7273407 243.97122192 C-559.95320121 237.61781017 -554.00110256 231.47060754 -547.91821289 225.4128418 C-546.36160611 223.86165273 -544.81049829 222.30510608 -543.25976562 220.74804688 C-538.41701875 215.90207999 -533.53085934 211.1572635 -528.3215332 206.70141602 C-525.55471835 204.32015038 -522.91200853 201.80941947 -520.25 199.3125 C-515.45388606 194.85048176 -510.53408705 190.61964352 -505.421875 186.51953125 C-502.77457274 184.36046097 -500.19555002 182.14388419 -497.62255859 179.89794922 C-490.16671327 173.40038521 -482.39049053 167.4530989 -474.43505859 161.58398438 C-471.69173157 159.53811338 -469.00620774 157.42331835 -466.3125 155.3125 C-435.02731022 131.07003361 -400.63418235 110.14822057 -365.60742188 91.79003906 C-362.72266146 90.2717928 -359.85206727 88.72987417 -356.984375 87.1796875 C-322.35374844 68.58873662 -285.71820306 53.87630233 -248.5625 41.1875 C-247.36641113 40.77790039 -246.17032227 40.36830078 -244.93798828 39.94628906 C-181.06211931 18.25643137 -113.89472094 5.20112226 -46.5625 1.1875 C-45.88659821 1.14513214 -45.21069641 1.10276428 -44.51431274 1.05911255 C-29.67707772 0.144381 -14.86258338 -0.01494163 0 0 Z " fill="#000000" transform="translate(770.5625,28.8125)"/>
<path d="M0 0 C3.51884046 2.65745764 6.27738085 5.35073229 9 8.8125 C12.69595341 13.42323258 16.49080846 17.92181948 20.375 22.375 C25.85915513 28.67230098 31.27706684 35.02098876 36.65722656 41.40722656 C38.47568438 43.56424816 40.29825769 45.71777183 42.12109375 47.87109375 C43.49525771 49.49439792 44.86872338 51.11829118 46.2421875 52.7421875 C48.09911777 54.93698142 49.95876969 57.12942971 51.8203125 59.3203125 C56.06965921 64.3252298 60.29680691 69.34183625 64.4375 74.4375 C67.89274151 78.68392382 71.42697834 82.85296294 75 87 C79.31928956 92.01319488 83.55097119 97.0853732 87.72265625 102.22265625 C90.28204054 105.34396367 92.88593791 108.4245003 95.5 111.5 C99.61989454 116.34814795 103.66796095 121.24846005 107.68359375 126.18359375 C110.27787266 129.33785192 112.91606265 132.4520298 115.5625 135.5625 C119.43123672 140.11145416 123.1977835 144.72507098 126.90625 149.40625 C129.38811347 152.48079728 131.93858593 155.49170092 134.5 158.5 C138.31856297 162.98724844 142.05006756 167.52701422 145.7109375 172.14453125 C148.75169702 175.93769714 151.8438872 179.68739379 154.9375 183.4375 C155.54722656 184.17661621 156.15695312 184.91573242 156.78515625 185.67724609 C157.97946293 187.12486137 159.17379805 188.5724532 160.36816406 190.02001953 C163.92521733 194.33595341 167.46133059 198.66899094 171 203 C172.03447266 204.26263672 172.03447266 204.26263672 173.08984375 205.55078125 C178.61200332 212.29121111 184.11001848 219.05103407 189.6015625 225.81640625 C191.84282603 228.57711254 194.08774204 231.33478 196.3359375 234.08984375 C201.8804846 240.8894038 207.37059349 247.72271248 212.76611328 254.64111328 C216.43445515 259.32469355 220.20580849 263.91804448 224 268.5 C228.71297432 274.1914994 233.34452844 279.93324446 237.88671875 285.76171875 C241.36854085 290.22089442 244.92253789 294.61729437 248.5 299 C253.02761359 304.54911983 257.4951599 310.13915801 261.90625 315.78125 C265.24154863 320.04463173 268.61270437 324.27783818 272 328.5 C277.25654937 335.05546504 282.45942271 341.65138765 287.64111328 348.26611328 C289.92453308 351.17966833 292.21254405 354.08961354 294.5 357 C295.42058018 358.17186929 296.34115311 359.34374429 297.26171875 360.515625 C299.05478524 362.79782527 300.849118 365.07902056 302.64453125 367.359375 C309.52487944 376.10122626 316.35929581 384.87830031 323.18408203 393.66357422 C325.00557308 396.00717053 326.82868777 398.34949427 328.65234375 400.69140625 C335.46355891 409.4392245 342.24949634 418.20525063 349 427 C350.60405092 429.08342246 352.20822017 431.1667538 353.8125 433.25 C363.19372595 445.44264018 372.5230297 457.67511588 381.84179688 469.91552734 C385.2503611 474.39272691 388.6621473 478.86737659 392.08203125 483.3359375 C399.04237852 492.43747848 405.93372816 501.58055072 412.70263672 510.82543945 C417.14494962 516.87826426 421.68408163 522.85253865 426.25 528.8125 C431.03283502 535.06036791 435.74629204 541.33754744 440.28320312 547.76611328 C443.71077787 552.61900207 447.221121 557.40785465 450.75 562.1875 C451.34240479 562.99002197 451.93480957 563.79254395 452.54516602 564.61938477 C454.3627181 567.08012722 456.18123647 569.54015284 458 572 C466.52968024 583.53946886 475.00369208 595.11522672 483.38671875 606.76171875 C485.01489256 609.02066207 486.64737625 611.27642661 488.28125 613.53125 C494.07060578 621.52377967 499.81395589 629.54512755 505.48950195 637.61889648 C509.03345356 642.65266215 512.63195451 647.644314 516.25 652.625 C523.32136268 662.37337091 530.17345929 672.27112519 537.03320312 682.16894531 C540.06971693 686.53977625 543.12955049 690.89415504 546.1875 695.25 C552.28140654 703.94300469 558.29702189 712.68728684 564.27197266 721.46240234 C566.03777169 724.05546749 567.80596039 726.64689268 569.57421875 729.23828125 C573.57696192 735.10937895 577.56852348 740.98803102 581.5557251 746.86968994 C582.57957631 748.37987373 583.60364629 749.88990921 584.62786865 751.39984131 C612.69920791 792.78589876 612.69920791 792.78589876 624.68115234 811.91992188 C626.73032844 815.15186937 628.86083739 818.32717406 631 821.5 C637.53366091 831.20391151 643.74696098 841.11403964 650 851 C651.01164629 852.59640009 652.02336135 854.1927566 653.03515625 855.7890625 C656.03175122 860.52081908 659.01749264 865.25935407 662 870 C662.56267578 870.89348145 663.12535156 871.78696289 663.70507812 872.70751953 C679.55168325 897.89074957 694.91583971 923.35383014 710 949 C710.60972656 950.03640625 711.21945313 951.0728125 711.84765625 952.140625 C720.38675915 966.67369862 728.76252458 981.29393287 737 996 C737.66443115 997.18601807 737.66443115 997.18601807 738.34228516 998.39599609 C745.32484643 1010.87769321 752.18248276 1023.4275424 759 1036 C759.8326236 1037.5350544 759.8326236 1037.5350544 760.68206787 1039.10112 C769.94163431 1056.20269339 778.90102927 1073.43072805 787.57730484 1090.83655167 C788.52074223 1092.7291094 789.46533483 1094.62108769 790.41000366 1096.51303101 C799.71944741 1115.16920047 808.80339033 1133.89307572 817.13061523 1153.01123047 C818.05684424 1155.13003458 818.99135797 1157.24503661 819.92773438 1159.359375 C842.60818938 1210.59072297 863.2633166 1263.56443246 876.51025391 1318.10351562 C876.93682388 1319.75535787 877.46050535 1321.38151606 878 1323 C845.33213547 1355.67336267 812.66415783 1388.34661225 779.99609375 1421.01977539 C779.0372246 1421.97879423 779.0372246 1421.97879423 778.05898437 1422.95718719 C709.57139126 1491.45546628 641.08306688 1559.95301411 572.59326172 1628.44908142 C571.07214558 1629.97033701 569.55102944 1631.4915926 568.02991331 1633.01284819 C536.1022045 1664.94347959 504.17439276 1696.87400806 472.24646208 1728.8044176 C456.20831811 1744.84380698 440.17019392 1760.88321614 424.13208844 1776.922644 C421.71278083 1779.34215086 419.29347266 1781.76165715 416.87416446 1784.18116342 C379.61445267 1821.44393566 342.35516559 1858.70713245 305.09710693 1895.97155762 C304.29585346 1896.77294799 303.49459999 1897.57433836 302.66906611 1898.40001328 C289.75025831 1911.3210335 276.8314861 1924.2420893 263.91271862 1937.16314982 C226.70861563 1974.37385534 189.50425009 2011.58429816 152.29814148 2048.79299831 C151.53323669 2049.55795664 150.76833189 2050.32291497 149.98024817 2051.11105385 C133.18985313 2067.90261458 116.39932268 2084.69403991 99.60866399 2101.485337 C92.85295518 2108.24130743 86.09726587 2114.99729736 79.34158325 2121.75329399 C78.2325036 2122.86242378 78.2325036 2122.86242378 77.1010183 2123.99396023 C53.26693819 2147.82913727 29.43444644 2171.66590174 5.60278507 2195.50349714 C-18.39834938 2219.51059331 -42.40103616 2243.51613624 -66.4058897 2267.51951369 C-69.72127378 2270.83469468 -73.03664001 2274.14989353 -76.35199547 2277.46510315 C-77.00191416 2278.11499196 -77.65183285 2278.76488077 -78.32144605 2279.43446319 C-88.62263679 2289.73527291 -98.92214205 2300.03776619 -109.22094915 2310.34095902 C-119.34196458 2320.46621547 -129.46475328 2330.58969617 -139.58944488 2340.71127669 C-145.52901192 2346.64912639 -151.46719936 2352.58834783 -157.40337301 2358.52959001 C-161.80546403 2362.93513553 -166.21014724 2367.33808056 -170.61586203 2371.74000201 C-172.39055602 2373.5139794 -174.16440477 2375.28880285 -175.93732134 2377.06455659 C-178.33989832 2379.47073563 -180.74553196 2381.87381728 -183.15195274 2384.27615124 C-184.17895885 2385.30692066 -184.17895885 2385.30692066 -185.22671256 2386.35851371 C-189.09514969 2390.2129051 -193.06883069 2393.88736073 -197.20966951 2397.44808575 C-199.44605645 2399.38665563 -201.60584068 2401.39910373 -203.7644043 2403.42333984 C-209.96130668 2409.2342185 -216.32952084 2414.73383224 -223 2420 C-223.6403418 2420.50756836 -224.28068359 2421.01513672 -224.94042969 2421.53808594 C-303.80218412 2483.93540019 -397.00265711 2523.25512396 -545 2552 C-545.68713074 2552.09841187 -546.37426147 2552.19682373 -547.08221436 2552.29821777 C-563.27868783 2554.59881753 -579.51314704 2556.32330687 -595.8125 2557.6875 C-596.53905792 2557.74843842 -597.26561584 2557.80937683 -598.01419067 2557.87216187 C-616.274412 2559.38286688 -634.47808959 2560.16569031 -652.80078125 2560.203125 C-653.76300283 2560.20595238 -654.72522442 2560.20877975 -655.71660423 2560.21169281 C-660.83361441 2560.22656756 -665.95059737 2560.23586432 -671.06762695 2560.24023438 C-675.1826286 2560.24456672 -679.29741437 2560.25826936 -683.41235352 2560.28125 C-713.0648467 2560.44326147 -742.44218139 2559.39032687 -772 2557 C-773.27920319 2556.89757996 -774.55840637 2556.79515991 -775.87637329 2556.68963623 C-782.42783928 2556.15123458 -788.96503971 2555.52250592 -795.5 2554.8125 C-796.45185181 2554.71117767 -797.40370361 2554.60985535 -798.38439941 2554.50546265 C-887.99025092 2544.89082416 -976.47787742 2525.33745309 -1062 2497 C-1063.70881984 2496.43635529 -1065.41764146 2495.872716 -1067.12646484 2495.30908203 C-1110.68206419 2480.90575834 -1153.34577881 2464.23638143 -1195 2445 C-1196.11938965 2444.48469727 -1197.2387793 2443.96939453 -1198.39208984 2443.43847656 C-1221.32248578 2432.87388117 -1243.94106765 2421.88447533 -1266.03076172 2409.640625 C-1269.17181896 2407.90506303 -1272.32173449 2406.18633141 -1275.47265625 2404.46875 C-1321.73217104 2379.15022601 -1366.37902393 2349.69481886 -1407 2316 C-1408.85410903 2314.49992876 -1410.7082765 2312.99992975 -1412.5625 2311.5 C-1417.05491069 2307.82671833 -1421.38966681 2304.01221173 -1425.6796875 2300.10546875 C-1427.70154184 2298.27082315 -1429.74678522 2296.47231214 -1431.8125 2294.6875 C-1441.67589593 2286.04973315 -1451.09462967 2277.00705862 -1460.375 2267.75 C-1461.08598846 2267.04289383 -1461.08598846 2267.04289383 -1461.81134033 2266.32150269 C-1467.43397639 2260.72308639 -1472.84805599 2255.03283802 -1478 2249 C-1479.02130523 2247.84316612 -1480.04470853 2246.68818075 -1481.0703125 2245.53515625 C-1489.1714203 2236.35591431 -1496.73509761 2226.85292549 -1504 2217 C-1504.75579346 2215.97567871 -1504.75579346 2215.97567871 -1505.52685547 2214.93066406 C-1545.47992126 2160.40311511 -1571.42172635 2095.41708168 -1561.90209961 2026.9621582 C-1555.27391712 1984.70270569 -1534.42084642 1943.63587561 -1505.23046875 1912.40625 C-1503.3967453 1910.42801244 -1501.63456528 1908.41810188 -1499.87684774 1906.37337732 C-1496.00332661 1901.94214452 -1491.9086129 1897.77198639 -1487.73996735 1893.61971283 C-1486.93201011 1892.81090135 -1486.12405288 1892.00208986 -1485.29161209 1891.16876894 C-1482.58760499 1888.46311943 -1479.8800438 1885.76105527 -1477.17248535 1883.05895996 C-1475.21165735 1881.09897198 -1473.25158955 1879.13822439 -1471.29148722 1877.17751074 C-1467.03144362 1872.91693525 -1462.76955743 1868.65821001 -1458.50644875 1864.40070152 C-1452.16701114 1858.06956817 -1445.83046813 1851.73554368 -1439.49453066 1845.40090777 C-1428.8335237 1834.7422338 -1418.17026183 1824.08581847 -1407.50578308 1813.43061829 C-1392.94149361 1798.87893956 -1378.38049188 1784.32397433 -1363.82036358 1769.76813215 C-1357.0351308 1762.98490554 -1350.24973739 1756.20183962 -1343.46430206 1749.41881561 C-1342.78505934 1748.73981391 -1342.10581662 1748.0608122 -1341.40599079 1747.36123468 C-1325.2433137 1731.20436723 -1309.0790636 1715.04907379 -1292.91455078 1698.89404297 C-1291.85381864 1697.83393129 -1291.85381864 1697.83393129 -1290.77165756 1696.75240322 C-1279.29597907 1685.28344165 -1267.82020513 1673.81457559 -1256.34441936 1662.34572136 C-1245.59138382 1651.59917877 -1234.83838324 1640.8526012 -1224.08544922 1630.10595703 C-1223.37867479 1629.39959719 -1222.67190036 1628.69323735 -1221.94370852 1627.96547266 C-1205.80693449 1611.83814733 -1189.67061061 1595.71037197 -1173.53569794 1579.58118439 C-1172.85754354 1578.90327099 -1172.17938915 1578.22535758 -1171.48068462 1577.52690135 C-1164.71040251 1570.75900462 -1157.9401991 1563.99102915 -1151.17011318 1557.22293616 C-1136.62637676 1542.68351586 -1122.08126339 1528.1454769 -1107.53335755 1513.61022837 C-1096.92958817 1503.01564293 -1086.32753357 1492.41934419 -1075.72726643 1481.82125461 C-1069.42933544 1475.52473845 -1063.12998919 1469.22964579 -1056.82862805 1462.93656239 C-1052.61914024 1458.73233305 -1048.41147051 1454.52628998 -1044.20526708 1450.31877473 C-1041.8091008 1447.92196782 -1039.41187911 1445.52624315 -1037.01297265 1443.13217705 C-1034.42633951 1440.55052168 -1031.84281196 1437.96579723 -1029.26003265 1435.38028717 C-1028.5183586 1434.64152597 -1027.77668454 1433.90276478 -1027.01253551 1433.14161688 C-1023.83677175 1429.95675256 -1020.74803969 1426.75320975 -1017.82991695 1423.32991695 C-1012.37773596 1417.01731246 -1006.36267174 1411.22864301 -1000.46129608 1405.34104156 C-999.06852981 1403.94783872 -997.67598358 1402.55441587 -996.28363687 1401.16079372 C-992.4519932 1397.32691418 -988.61723554 1393.49616261 -984.78197078 1389.66590595 C-980.61187721 1385.50015016 -976.44469757 1381.33148118 -972.27715254 1377.16317606 C-964.9709255 1369.85641585 -957.66286264 1362.55149512 -950.35355949 1355.24781227 C-942.51183328 1347.41209382 -934.67120864 1339.57527554 -926.83192635 1331.73711205 C-926.33654696 1331.24180445 -925.84116758 1330.74649685 -925.33077669 1330.23617993 C-922.80475894 1327.71051707 -920.27876012 1325.18483527 -917.75276883 1322.65914594 C-900.0348244 1304.94338063 -882.31475082 1287.22974643 -864.5934036 1269.51738505 C-845.92236819 1250.85581634 -827.25252895 1232.1930523 -808.5844574 1213.52851868 C-808.02195548 1212.96612392 -807.45945357 1212.40372916 -806.87990615 1211.82429214 C-800.59466718 1205.54024424 -794.30946776 1199.25615677 -788.02428454 1192.97205311 C-776.39954111 1181.34930921 -764.77463136 1169.72673166 -753.14968109 1158.10419464 C-752.56804523 1157.52267906 -751.98640936 1156.94116347 -751.38714817 1156.34202621 C-723.70644987 1128.66706871 -696.0242359 1100.99362747 -668.34167205 1073.32053605 C-666.50491299 1071.48440534 -664.6681547 1069.64827387 -662.83139657 1067.81214223 C-643.7716705 1048.75892049 -624.71185342 1029.70578979 -605.6520222 1010.65267323 C-587.21175564 992.21890256 -568.7715148 973.78510617 -550.33135136 955.35123235 C-548.49510569 953.51561334 -546.65885926 951.67999508 -544.82261276 949.8443769 C-517.1644085 922.19562618 -489.50665628 894.54642348 -461.85031891 866.89580536 C-461.26910943 866.31471654 -460.68789995 865.73362771 -460.08907807 865.13493014 C-448.47716869 853.52542708 -436.86532528 841.91585804 -425.25362181 830.30614903 C-418.97429088 824.02789765 -412.69493186 817.74967437 -406.4155426 811.47148132 C-405.57287391 810.62897233 -405.57287391 810.62897233 -404.71318161 809.76944296 C-386.05236081 791.1121951 -367.38954103 772.45694814 -348.72577538 753.8026462 C-331.05624236 736.14205346 -313.38823871 718.4799321 -295.72211938 700.81592458 C-293.20412079 698.29822905 -290.68610316 695.78055256 -288.16807365 693.26288795 C-287.6744699 692.76935465 -287.18086615 692.27582135 -286.67230472 691.76733249 C-278.85380158 683.95004084 -271.03360726 676.13444325 -263.21270363 668.31955328 C-255.5240757 660.63677038 -247.83726422 652.95217348 -240.15225905 645.26576669 C-236.04067632 641.15354122 -231.92829322 637.04212479 -227.81370348 632.93290788 C-224.07152749 629.19558994 -220.33165763 625.45598043 -216.59362241 621.71452106 C-215.24848493 620.36896194 -213.90250496 619.0242444 -212.55558566 617.68046891 C-206.1516938 611.29067018 -199.85302382 604.90591787 -194 598 C-192.22622955 596.04537843 -190.42412998 594.11899841 -188.625 592.1875 C-184.40601746 587.61567543 -180.38852532 582.92745156 -176.48828125 578.078125 C-174.62939514 575.77859241 -172.75385224 573.50086452 -170.85546875 571.234375 C-161.83708006 560.44424119 -153.3240241 549.33265365 -145 538 C-144.41798828 537.20883789 -143.83597656 536.41767578 -143.23632812 535.60253906 C-135.88042789 525.57897694 -128.76343549 515.43247302 -122 505 C-121.225354 503.81011475 -121.225354 503.81011475 -120.43505859 502.59619141 C-72.29620491 428.47050396 -37.3827709 347.23228058 4 98 C4.03504639 96.49010498 4.03504639 96.49010498 4.07080078 94.94970703 C4.62853405 66.67403628 3.38575203 37.97219385 0.3671875 9.8515625 C0.05084432 6.53332449 -0.07398338 3.32925201 0 0 Z " fill="#595657" transform="translate(3688,2467)"/>
</svg>
